<mxfile host="app.diagrams.net" agent="Mozilla/5.0 (Windows NT 10.0; Win64; x64) AppleWebKit/537.36 (KHTML, like Gecko) Chrome/137.0.0.0 Safari/537.36" version="27.1.5">
  <diagram name="Page-1" id="2Edt1EXXqlRnoWFyLVGf">
    <mxGraphModel dx="1042" dy="562" grid="1" gridSize="10" guides="1" tooltips="1" connect="1" arrows="1" fold="1" page="1" pageScale="1" pageWidth="850" pageHeight="1100" math="0" shadow="0">
      <root>
        <mxCell id="0" />
        <mxCell id="1" parent="0" />
        <mxCell id="Nh7Hmu9EvfzuUdfPEOu9-1" value="" style="shape=actor;whiteSpace=wrap;html=1;" vertex="1" parent="1">
          <mxGeometry x="30" y="350" width="40" height="60" as="geometry" />
        </mxCell>
        <mxCell id="Nh7Hmu9EvfzuUdfPEOu9-41" style="edgeStyle=orthogonalEdgeStyle;rounded=0;orthogonalLoop=1;jettySize=auto;html=1;entryX=0;entryY=0.5;entryDx=0;entryDy=0;" edge="1" parent="1" source="Nh7Hmu9EvfzuUdfPEOu9-4" target="Nh7Hmu9EvfzuUdfPEOu9-13">
          <mxGeometry relative="1" as="geometry" />
        </mxCell>
        <mxCell id="Nh7Hmu9EvfzuUdfPEOu9-44" style="edgeStyle=orthogonalEdgeStyle;rounded=0;orthogonalLoop=1;jettySize=auto;html=1;entryX=0;entryY=0.5;entryDx=0;entryDy=0;" edge="1" parent="1" source="Nh7Hmu9EvfzuUdfPEOu9-4" target="Nh7Hmu9EvfzuUdfPEOu9-18">
          <mxGeometry relative="1" as="geometry" />
        </mxCell>
        <mxCell id="Nh7Hmu9EvfzuUdfPEOu9-45" style="edgeStyle=orthogonalEdgeStyle;rounded=0;orthogonalLoop=1;jettySize=auto;html=1;entryX=0;entryY=0.5;entryDx=0;entryDy=0;" edge="1" parent="1" source="Nh7Hmu9EvfzuUdfPEOu9-4" target="Nh7Hmu9EvfzuUdfPEOu9-5">
          <mxGeometry relative="1" as="geometry" />
        </mxCell>
        <mxCell id="Nh7Hmu9EvfzuUdfPEOu9-4" value="" style="outlineConnect=0;dashed=0;verticalLabelPosition=bottom;verticalAlign=top;align=center;html=1;shape=mxgraph.aws3.application_load_balancer;fillColor=#F58534;gradientColor=none;" vertex="1" parent="1">
          <mxGeometry x="450" y="344" width="69" height="72" as="geometry" />
        </mxCell>
        <mxCell id="Nh7Hmu9EvfzuUdfPEOu9-5" value="EC2 instance contents" style="points=[[0,0],[0.25,0],[0.5,0],[0.75,0],[1,0],[1,0.25],[1,0.5],[1,0.75],[1,1],[0.75,1],[0.5,1],[0.25,1],[0,1],[0,0.75],[0,0.5],[0,0.25]];outlineConnect=0;gradientColor=none;html=1;whiteSpace=wrap;fontSize=12;fontStyle=0;container=1;pointerEvents=0;collapsible=0;recursiveResize=0;shape=mxgraph.aws4.group;grIcon=mxgraph.aws4.group_ec2_instance_contents;strokeColor=#D86613;fillColor=none;verticalAlign=top;align=left;spacingLeft=30;fontColor=#D86613;dashed=0;" vertex="1" parent="1">
          <mxGeometry x="690" y="60" width="399.38" height="180" as="geometry" />
        </mxCell>
        <mxCell id="Nh7Hmu9EvfzuUdfPEOu9-6" value="" style="image;aspect=fixed;perimeter=ellipsePerimeter;html=1;align=center;shadow=0;dashed=0;fontColor=#4277BB;labelBackgroundColor=default;fontSize=12;spacingTop=3;image=img/lib/ibm/infrastructure/mobile_backend.svg;" vertex="1" parent="Nh7Hmu9EvfzuUdfPEOu9-5">
          <mxGeometry x="10" y="30" width="50" height="50" as="geometry" />
        </mxCell>
        <mxCell id="Nh7Hmu9EvfzuUdfPEOu9-9" value="Node Backend: port&amp;nbsp;&lt;span style=&quot;background-color: transparent; color: light-dark(rgb(0, 0, 0), rgb(255, 255, 255));&quot;&gt;3001&lt;/span&gt;&lt;div&gt;reverse proxied through nginx on port 80&lt;/div&gt;" style="text;html=1;align=center;verticalAlign=middle;resizable=0;points=[];autosize=1;strokeColor=none;fillColor=none;" vertex="1" parent="Nh7Hmu9EvfzuUdfPEOu9-5">
          <mxGeometry x="79.69" y="35" width="240" height="40" as="geometry" />
        </mxCell>
        <mxCell id="Nh7Hmu9EvfzuUdfPEOu9-11" value="" style="shape=mxgraph.sap.icon;labelPosition=center;verticalLabelPosition=bottom;align=center;verticalAlign=top;strokeWidth=1;strokeColor=#D5DADD;fillColor=#EDEFF0;gradientColor=#FCFCFC;gradientDirection=west;aspect=fixed;SAPIcon=Application_Frontend_Service" vertex="1" parent="Nh7Hmu9EvfzuUdfPEOu9-5">
          <mxGeometry x="10" y="100" width="50" height="50" as="geometry" />
        </mxCell>
        <mxCell id="Nh7Hmu9EvfzuUdfPEOu9-12" value="React Frontend:&amp;nbsp;&lt;br&gt;Configured through nginx to use /var/www/travel-frontend&lt;div&gt;&lt;br&gt;&lt;/div&gt;" style="text;html=1;align=center;verticalAlign=middle;resizable=0;points=[];autosize=1;strokeColor=none;fillColor=none;" vertex="1" parent="Nh7Hmu9EvfzuUdfPEOu9-5">
          <mxGeometry x="70" y="95" width="330" height="60" as="geometry" />
        </mxCell>
        <mxCell id="Nh7Hmu9EvfzuUdfPEOu9-13" value="EC2 instance contents" style="points=[[0,0],[0.25,0],[0.5,0],[0.75,0],[1,0],[1,0.25],[1,0.5],[1,0.75],[1,1],[0.75,1],[0.5,1],[0.25,1],[0,1],[0,0.75],[0,0.5],[0,0.25]];outlineConnect=0;gradientColor=none;html=1;whiteSpace=wrap;fontSize=12;fontStyle=0;container=1;pointerEvents=0;collapsible=0;recursiveResize=0;shape=mxgraph.aws4.group;grIcon=mxgraph.aws4.group_ec2_instance_contents;strokeColor=#D86613;fillColor=none;verticalAlign=top;align=left;spacingLeft=30;fontColor=#D86613;dashed=0;" vertex="1" parent="1">
          <mxGeometry x="690" y="290" width="399.38" height="180" as="geometry" />
        </mxCell>
        <mxCell id="Nh7Hmu9EvfzuUdfPEOu9-14" value="" style="image;aspect=fixed;perimeter=ellipsePerimeter;html=1;align=center;shadow=0;dashed=0;fontColor=#4277BB;labelBackgroundColor=default;fontSize=12;spacingTop=3;image=img/lib/ibm/infrastructure/mobile_backend.svg;" vertex="1" parent="Nh7Hmu9EvfzuUdfPEOu9-13">
          <mxGeometry x="10" y="30" width="50" height="50" as="geometry" />
        </mxCell>
        <mxCell id="Nh7Hmu9EvfzuUdfPEOu9-15" value="Node Backend: port&amp;nbsp;&lt;span style=&quot;background-color: transparent; color: light-dark(rgb(0, 0, 0), rgb(255, 255, 255));&quot;&gt;3001&lt;/span&gt;&lt;div&gt;reverse proxied through nginx on port 80&lt;/div&gt;" style="text;html=1;align=center;verticalAlign=middle;resizable=0;points=[];autosize=1;strokeColor=none;fillColor=none;" vertex="1" parent="Nh7Hmu9EvfzuUdfPEOu9-13">
          <mxGeometry x="115" y="35" width="240" height="40" as="geometry" />
        </mxCell>
        <mxCell id="Nh7Hmu9EvfzuUdfPEOu9-16" value="" style="shape=mxgraph.sap.icon;labelPosition=center;verticalLabelPosition=bottom;align=center;verticalAlign=top;strokeWidth=1;strokeColor=#D5DADD;fillColor=#EDEFF0;gradientColor=#FCFCFC;gradientDirection=west;aspect=fixed;SAPIcon=Application_Frontend_Service" vertex="1" parent="Nh7Hmu9EvfzuUdfPEOu9-13">
          <mxGeometry x="10" y="100" width="50" height="50" as="geometry" />
        </mxCell>
        <mxCell id="Nh7Hmu9EvfzuUdfPEOu9-17" value="React Frontend:&amp;nbsp;&lt;br&gt;Configured through nginx to use /var/www/travel-frontend&lt;div&gt;&lt;br&gt;&lt;/div&gt;" style="text;html=1;align=center;verticalAlign=middle;resizable=0;points=[];autosize=1;strokeColor=none;fillColor=none;" vertex="1" parent="Nh7Hmu9EvfzuUdfPEOu9-13">
          <mxGeometry x="70" y="95" width="330" height="60" as="geometry" />
        </mxCell>
        <mxCell id="Nh7Hmu9EvfzuUdfPEOu9-18" value="EC2 instance contents" style="points=[[0,0],[0.25,0],[0.5,0],[0.75,0],[1,0],[1,0.25],[1,0.5],[1,0.75],[1,1],[0.75,1],[0.5,1],[0.25,1],[0,1],[0,0.75],[0,0.5],[0,0.25]];outlineConnect=0;gradientColor=none;html=1;whiteSpace=wrap;fontSize=12;fontStyle=0;container=1;pointerEvents=0;collapsible=0;recursiveResize=0;shape=mxgraph.aws4.group;grIcon=mxgraph.aws4.group_ec2_instance_contents;strokeColor=#D86613;fillColor=none;verticalAlign=top;align=left;spacingLeft=30;fontColor=#D86613;dashed=0;" vertex="1" parent="1">
          <mxGeometry x="690" y="520" width="399.38" height="180" as="geometry" />
        </mxCell>
        <mxCell id="Nh7Hmu9EvfzuUdfPEOu9-19" value="" style="image;aspect=fixed;perimeter=ellipsePerimeter;html=1;align=center;shadow=0;dashed=0;fontColor=#4277BB;labelBackgroundColor=default;fontSize=12;spacingTop=3;image=img/lib/ibm/infrastructure/mobile_backend.svg;" vertex="1" parent="Nh7Hmu9EvfzuUdfPEOu9-18">
          <mxGeometry x="10" y="30" width="50" height="50" as="geometry" />
        </mxCell>
        <mxCell id="Nh7Hmu9EvfzuUdfPEOu9-20" value="Node Backend: port&amp;nbsp;&lt;span style=&quot;background-color: transparent; color: light-dark(rgb(0, 0, 0), rgb(255, 255, 255));&quot;&gt;3001&lt;/span&gt;&lt;div&gt;reverse proxied through nginx on port 80&lt;/div&gt;" style="text;html=1;align=center;verticalAlign=middle;resizable=0;points=[];autosize=1;strokeColor=none;fillColor=none;" vertex="1" parent="Nh7Hmu9EvfzuUdfPEOu9-18">
          <mxGeometry x="115" y="35" width="240" height="40" as="geometry" />
        </mxCell>
        <mxCell id="Nh7Hmu9EvfzuUdfPEOu9-21" value="" style="shape=mxgraph.sap.icon;labelPosition=center;verticalLabelPosition=bottom;align=center;verticalAlign=top;strokeWidth=1;strokeColor=#D5DADD;fillColor=#EDEFF0;gradientColor=#FCFCFC;gradientDirection=west;aspect=fixed;SAPIcon=Application_Frontend_Service" vertex="1" parent="Nh7Hmu9EvfzuUdfPEOu9-18">
          <mxGeometry x="10" y="100" width="50" height="50" as="geometry" />
        </mxCell>
        <mxCell id="Nh7Hmu9EvfzuUdfPEOu9-22" value="React Frontend:&amp;nbsp;&lt;br&gt;Configured through nginx to use /var/www/travel-frontend&lt;div&gt;&lt;br&gt;&lt;/div&gt;" style="text;html=1;align=center;verticalAlign=middle;resizable=0;points=[];autosize=1;strokeColor=none;fillColor=none;" vertex="1" parent="Nh7Hmu9EvfzuUdfPEOu9-18">
          <mxGeometry x="70" y="95" width="330" height="60" as="geometry" />
        </mxCell>
        <mxCell id="Nh7Hmu9EvfzuUdfPEOu9-23" value="" style="points=[];aspect=fixed;html=1;align=center;shadow=0;dashed=0;fillColor=#FF6A00;strokeColor=none;shape=mxgraph.alibaba_cloud.clouddev;" vertex="1" parent="1">
          <mxGeometry x="180" y="359.75" width="56.699999999999996" height="40.5" as="geometry" />
        </mxCell>
        <mxCell id="Nh7Hmu9EvfzuUdfPEOu9-24" value="CloudFlare" style="text;html=1;align=center;verticalAlign=middle;resizable=0;points=[];autosize=1;strokeColor=none;fillColor=none;" vertex="1" parent="1">
          <mxGeometry x="168.35" y="410" width="80" height="30" as="geometry" />
        </mxCell>
        <mxCell id="Nh7Hmu9EvfzuUdfPEOu9-25" style="edgeStyle=orthogonalEdgeStyle;rounded=0;orthogonalLoop=1;jettySize=auto;html=1;entryX=0.078;entryY=0.505;entryDx=0;entryDy=0;entryPerimeter=0;" edge="1" parent="1" source="Nh7Hmu9EvfzuUdfPEOu9-1" target="Nh7Hmu9EvfzuUdfPEOu9-23">
          <mxGeometry relative="1" as="geometry" />
        </mxCell>
        <mxCell id="Nh7Hmu9EvfzuUdfPEOu9-26" style="edgeStyle=orthogonalEdgeStyle;rounded=0;orthogonalLoop=1;jettySize=auto;html=1;entryX=0;entryY=0.5;entryDx=0;entryDy=0;entryPerimeter=0;" edge="1" parent="1" source="Nh7Hmu9EvfzuUdfPEOu9-23" target="Nh7Hmu9EvfzuUdfPEOu9-4">
          <mxGeometry relative="1" as="geometry" />
        </mxCell>
        <mxCell id="Nh7Hmu9EvfzuUdfPEOu9-27" value="A Record" style="rounded=1;whiteSpace=wrap;html=1;" vertex="1" parent="1">
          <mxGeometry x="148.35" y="220" width="120" height="60" as="geometry" />
        </mxCell>
        <mxCell id="Nh7Hmu9EvfzuUdfPEOu9-28" style="edgeStyle=orthogonalEdgeStyle;rounded=0;orthogonalLoop=1;jettySize=auto;html=1;entryX=0.515;entryY=0.051;entryDx=0;entryDy=0;entryPerimeter=0;" edge="1" parent="1" source="Nh7Hmu9EvfzuUdfPEOu9-27" target="Nh7Hmu9EvfzuUdfPEOu9-23">
          <mxGeometry relative="1" as="geometry" />
        </mxCell>
        <mxCell id="Nh7Hmu9EvfzuUdfPEOu9-29" value="CNAME Record" style="rounded=1;whiteSpace=wrap;html=1;" vertex="1" parent="1">
          <mxGeometry x="305" y="220" width="120" height="60" as="geometry" />
        </mxCell>
        <mxCell id="Nh7Hmu9EvfzuUdfPEOu9-30" style="edgeStyle=orthogonalEdgeStyle;rounded=0;orthogonalLoop=1;jettySize=auto;html=1;exitX=0;exitY=0.5;exitDx=0;exitDy=0;entryX=0;entryY=0.5;entryDx=0;entryDy=0;" edge="1" parent="1" target="Nh7Hmu9EvfzuUdfPEOu9-29">
          <mxGeometry relative="1" as="geometry">
            <mxPoint x="280" y="380" as="sourcePoint" />
            <Array as="points">
              <mxPoint x="280" y="381" />
              <mxPoint x="285" y="381" />
              <mxPoint x="285" y="250" />
            </Array>
          </mxGeometry>
        </mxCell>
        <mxCell id="Nh7Hmu9EvfzuUdfPEOu9-32" style="edgeStyle=orthogonalEdgeStyle;rounded=0;orthogonalLoop=1;jettySize=auto;html=1;" edge="1" parent="1" source="Nh7Hmu9EvfzuUdfPEOu9-31">
          <mxGeometry relative="1" as="geometry">
            <mxPoint x="484.5" y="560" as="targetPoint" />
          </mxGeometry>
        </mxCell>
        <mxCell id="Nh7Hmu9EvfzuUdfPEOu9-31" value="Application Load&lt;div&gt;Balancer&lt;/div&gt;" style="text;html=1;align=center;verticalAlign=middle;resizable=0;points=[];autosize=1;strokeColor=none;fillColor=none;" vertex="1" parent="1">
          <mxGeometry x="429.5" y="420" width="110" height="40" as="geometry" />
        </mxCell>
        <mxCell id="Nh7Hmu9EvfzuUdfPEOu9-33" value="" style="sketch=0;points=[[0,0,0],[0.25,0,0],[0.5,0,0],[0.75,0,0],[1,0,0],[0,1,0],[0.25,1,0],[0.5,1,0],[0.75,1,0],[1,1,0],[0,0.25,0],[0,0.5,0],[0,0.75,0],[1,0.25,0],[1,0.5,0],[1,0.75,0]];outlineConnect=0;fontColor=#232F3E;fillColor=#DD344C;strokeColor=#ffffff;dashed=0;verticalLabelPosition=bottom;verticalAlign=top;align=center;html=1;fontSize=12;fontStyle=0;aspect=fixed;shape=mxgraph.aws4.resourceIcon;resIcon=mxgraph.aws4.certificate_manager_3;" vertex="1" parent="1">
          <mxGeometry x="450" y="560" width="78" height="78" as="geometry" />
        </mxCell>
        <mxCell id="Nh7Hmu9EvfzuUdfPEOu9-34" value="&lt;b&gt;ACM&lt;/b&gt;&lt;div&gt;Issues SSL&lt;/div&gt;&lt;div&gt;Certificate&lt;/div&gt;" style="text;html=1;align=center;verticalAlign=middle;resizable=0;points=[];autosize=1;strokeColor=none;fillColor=none;" vertex="1" parent="1">
          <mxGeometry x="450" y="643.1" width="80" height="60" as="geometry" />
        </mxCell>
        <mxCell id="Nh7Hmu9EvfzuUdfPEOu9-35" value="" style="rounded=1;whiteSpace=wrap;html=1;direction=south;" vertex="1" parent="1">
          <mxGeometry x="270" y="560" width="94.88" height="99" as="geometry" />
        </mxCell>
        <mxCell id="Nh7Hmu9EvfzuUdfPEOu9-36" value="" style="dashed=0;outlineConnect=0;html=1;align=center;labelPosition=center;verticalLabelPosition=bottom;verticalAlign=top;shape=mxgraph.weblogos.mongodb" vertex="1" parent="1">
          <mxGeometry x="307.38" y="570" width="20.11" height="49" as="geometry" />
        </mxCell>
        <mxCell id="Nh7Hmu9EvfzuUdfPEOu9-38" value="MongoDB&lt;div&gt;Atlas&lt;/div&gt;" style="text;html=1;align=center;verticalAlign=middle;resizable=0;points=[];autosize=1;strokeColor=none;fillColor=none;" vertex="1" parent="1">
          <mxGeometry x="277.44" y="619" width="80" height="40" as="geometry" />
        </mxCell>
        <mxCell id="Nh7Hmu9EvfzuUdfPEOu9-39" value="DB URI in .env&lt;div&gt;&lt;br&gt;&lt;/div&gt;" style="text;html=1;align=center;verticalAlign=middle;resizable=0;points=[];autosize=1;strokeColor=none;fillColor=none;" vertex="1" parent="1">
          <mxGeometry x="267.44" y="660" width="100" height="40" as="geometry" />
        </mxCell>
        <mxCell id="Nh7Hmu9EvfzuUdfPEOu9-40" value="User" style="text;html=1;align=center;verticalAlign=middle;resizable=0;points=[];autosize=1;strokeColor=none;fillColor=none;" vertex="1" parent="1">
          <mxGeometry x="25" y="416" width="50" height="30" as="geometry" />
        </mxCell>
      </root>
    </mxGraphModel>
  </diagram>
</mxfile>
